<?xml version="1.0" encoding="UTF-8" standalone="no"?>
<svg
   xmlns:dc="http://purl.org/dc/elements/1.1/"
   xmlns:cc="http://creativecommons.org/ns#"
   xmlns:rdf="http://www.w3.org/1999/02/22-rdf-syntax-ns#"
   xmlns:svg="http://www.w3.org/2000/svg"
   xmlns="http://www.w3.org/2000/svg"
   id="svg3015"
   viewBox="0 0 255.10962 289.3222"
   height="289.3222"
   width="255.10962"
   version="1.1">
  <metadata
     id="metadata3043">
    <rdf:RDF>
      <cc:Work
         rdf:about="">
        <dc:format>image/svg+xml</dc:format>
        <dc:type
           rdf:resource="http://purl.org/dc/dcmitype/StillImage" />
        <dc:title></dc:title>
      </cc:Work>
    </rdf:RDF>
  </metadata>
  <defs
     id="defs3041" />
  <g
     id="g3017"
     transform="translate(-0.44518681,-70.765714)">
    <path
       style="fill:#e44d26"
       id="path3019"
       d="M 255.55481,70.765714 232.31367,331.12545 127.84387,360.08791 23.661714,331.16624 0.44518681,70.765714 l 255.10962319,0 0,0 z" />
    <path
       style="fill:#f18429;fill-opacity:1"
       id="path3021"
       d="m 128,337.95024 84.4167,-23.4036 19.8611,-222.489321 -104.2778,0 0,245.892921 0,0 z" />
    <g
       id="g3158"
       transform="matrix(0.55959928,0,0,0.55959928,39.523149,103.621)">
      <circle
         style="fill:#ffffff;stroke:#321e1e;stroke-width:1.41994458;stroke-miterlimit:4;stroke-dasharray:none;stroke-opacity:1"
         id="circle21800"
         transform="matrix(12.584949,0,0,12.584949,-606.28198,6.4761424)"
         r="2.7019999"
         cy="11.836"
         cx="49.683998" />
      <circle
         style="fill:#ffffff;stroke:#321e1e;stroke-width:1.41994458;stroke-miterlimit:4;stroke-dasharray:none;stroke-opacity:1"
         id="circle21802"
         transform="matrix(12.584949,0,0,12.584949,-606.28198,6.4761424)"
         r="2.7019999"
         cy="11.836"
         cx="71.786003" />
      <path
         style="fill:none;stroke:#321e1e;stroke-width:17.86993007;stroke-linecap:round;stroke-linejoin:round;stroke-miterlimit:4;stroke-dasharray:none;stroke-opacity:1"
         id="path21804"
         d="m 252.33876,36.075942 c 0,0 0,0 -68.00906,-16.008055 l -24.99371,79.008309" />
      <circle
         style="fill:#ffffff;stroke:#321e1e;stroke-width:1.41994458;stroke-miterlimit:4;stroke-dasharray:none;stroke-opacity:1"
         id="circle21808"
         transform="matrix(12.584949,0,0,12.584949,-606.28198,6.4761424)"
         r="2.1300001"
         cy="2.789"
         cx="70.431" />
      <ellipse
         style="fill:#ffffff;stroke:#321e1e;stroke-width:1.41994458;stroke-miterlimit:4;stroke-dasharray:none;stroke-opacity:1"
         id="ellipse21820"
         transform="matrix(12.584949,0,0,12.584949,-606.28198,6.4761424)"
         ry="7.987"
         rx="12.238"
         cy="15.552"
         cx="60.675999" />
      <g
         id="g21824"
         transform="matrix(12.584949,0,0,12.584949,-606.28198,6.4761424)">
        <path
           style="fill:#ff4500;stroke:none"
           id="circle21826"
           transform="matrix(0.07946,0,0,0.07946,45.637601,-0.68559946)"
           d="m 135.90625,159.65625 c -13.67995,0 -25.15625,11.4763 -25.15625,25.15625 0,13.67995 11.4763,24.78125 25.15625,24.78125 13.67995,0 24.78125,-11.1013 24.78125,-24.78125 0,-13.67995 -11.1013,-25.15625 -24.78125,-25.15625 z" />
        <path
           style="fill:#ff4500;stroke:none"
           id="circle21828"
           transform="matrix(0.07946,0,0,0.07946,45.637601,-0.68559946)"
           d="m 244.46875,159.65625 c -13.68691,0 -25.1875,11.46934 -25.1875,25.15625 0,13.68691 11.50059,24.78125 25.1875,24.78125 13.68692,0 24.78125,-11.09434 24.78125,-24.78125 0,-13.68691 -11.09433,-25.15625 -24.78125,-25.15625 z" />
        <path
           style="fill:none;stroke:#321e1e;stroke-width:1.10000002;stroke-linecap:round;stroke-opacity:1"
           id="path21830"
           d="m 56.507,19.229 c 1.066,1.066 2.786,1.271 4.212,1.271" />
        <path
           style="fill:none;stroke:#321e1e;stroke-width:1.10000002;stroke-linecap:round;stroke-opacity:1"
           id="path21832"
           d="M 64.963,19.229 C 63.896,20.295 62.177,20.5 60.75,20.5" />
      </g>
      <circle
         style="fill:#60d9ff;fill-opacity:1;stroke:#321e1e;stroke-width:1.10000002;stroke-opacity:1"
         id="circle3170"
         transform="matrix(12.584949,0,0,12.584949,-781.19627,145.90057)"
         r="2.1300001"
         cy="2.789"
         cx="70.431" />
      <circle
         style="fill:#60d9ff;fill-opacity:1;stroke:#321e1e;stroke-width:1.10000002;stroke-opacity:1"
         id="circle3172"
         transform="matrix(12.584949,0,0,12.584949,-676.4167,145.90057)"
         r="2.1300001"
         cy="2.789"
         cx="70.431" />
      <rect
         style="fill:#321e1e;fill-opacity:1;stroke:none"
         id="rect3174"
         y="162.28896"
         x="129.33502"
         height="16.899933"
         width="56.614769" />
    </g>
  </g>
</svg>
