<?xml version="1.0" encoding="UTF-8" standalone="no"?>
<!-- Created with Inkscape (http://www.inkscape.org/) -->

<svg
   xmlns:dc="http://purl.org/dc/elements/1.1/"
   xmlns:cc="http://creativecommons.org/ns#"
   xmlns:rdf="http://www.w3.org/1999/02/22-rdf-syntax-ns#"
   xmlns:svg="http://www.w3.org/2000/svg"
   xmlns="http://www.w3.org/2000/svg"
   version="1.1"
   width="255.10962"
   height="289.3222"
   viewBox="0 0 255.10962 289.3222"
   id="svg3015">
  <metadata
     id="metadata3043">
    <rdf:RDF>
      <cc:Work
         rdf:about="">
        <dc:format>image/svg+xml</dc:format>
        <dc:type
           rdf:resource="http://purl.org/dc/dcmitype/StillImage" />
        <dc:title></dc:title>
      </cc:Work>
    </rdf:RDF>
  </metadata>
  <defs
     id="defs3041" />
  <g
     transform="translate(-0.44518681,-70.765714)"
     id="g3017">
    <path
       d="M 255.55481,70.765714 232.31367,331.12545 127.84387,360.08791 23.661714,331.16624 0.44518681,70.765714 l 255.10962319,0 0,0 z"
       id="path3019"
       style="fill:#e44d26" />
    <path
       d="m 128,337.95024 84.4167,-23.4036 19.8611,-222.489321 -104.2778,0 0,245.892921 0,0 z"
       id="path3021"
       style="fill:#f16529" />
    <g
       transform="matrix(0.55959928,0,0,0.55959928,39.523149,103.621)"
       id="g3158">
      <circle
         cx="49.683998"
         cy="11.836"
         r="2.7019999"
         transform="matrix(12.584949,0,0,12.584949,-606.28198,6.4761424)"
         id="circle21800"
         style="fill:#ffffff;stroke:#000000;stroke-width:1.10000002" />
      <circle
         cx="71.786003"
         cy="11.836"
         r="2.7019999"
         transform="matrix(12.584949,0,0,12.584949,-606.28198,6.4761424)"
         id="circle21802"
         style="fill:#ffffff;stroke:#000000;stroke-width:1.10000002" />
      <path
         d="m 252.33876,36.075942 c 0,0 0,0 -68.00906,-16.008055 l -24.99371,79.008309"
         id="path21804"
         style="fill:none;stroke:#000000;stroke-width:13.84344387;stroke-linecap:round;stroke-linejoin:round" />
      <circle
         cx="70.431"
         cy="2.789"
         r="2.1300001"
         transform="matrix(12.584949,0,0,12.584949,-606.28198,6.4761424)"
         id="circle21808"
         style="fill:#ffffff;stroke:#000000;stroke-width:1.10000002" />
      <ellipse
         cx="60.675999"
         cy="15.552"
         rx="12.238"
         ry="7.987"
         transform="matrix(12.584949,0,0,12.584949,-606.28198,6.4761424)"
         id="ellipse21820"
         style="fill:#ffffff;stroke:#000000;stroke-width:1.10000002" />
      <g
         transform="matrix(12.584949,0,0,12.584949,-606.28198,6.4761424)"
         id="g21824">
        <path
           d="m 135.90625,159.65625 c -13.67995,0 -25.15625,11.4763 -25.15625,25.15625 0,13.67995 11.4763,24.78125 25.15625,24.78125 13.67995,0 24.78125,-11.1013 24.78125,-24.78125 0,-13.67995 -11.1013,-25.15625 -24.78125,-25.15625 z"
           transform="matrix(0.07946,0,0,0.07946,45.637601,-0.68559946)"
           id="circle21826"
           style="fill:#ff4500;stroke:none" />
        <path
           d="m 244.46875,159.65625 c -13.68691,0 -25.1875,11.46934 -25.1875,25.15625 0,13.68691 11.50059,24.78125 25.1875,24.78125 13.68692,0 24.78125,-11.09434 24.78125,-24.78125 0,-13.68691 -11.09433,-25.15625 -24.78125,-25.15625 z"
           transform="matrix(0.07946,0,0,0.07946,45.637601,-0.68559946)"
           id="circle21828"
           style="fill:#ff4500;stroke:none" />
        <path
           d="m 56.507,19.229 c 1.066,1.066 2.786,1.271 4.212,1.271"
           id="path21830"
           style="fill:none;stroke:#000000;stroke-width:1.10000002;stroke-linecap:round" />
        <path
           d="M 64.963,19.229 C 63.896,20.295 62.177,20.5 60.75,20.5"
           id="path21832"
           style="fill:none;stroke:#000000;stroke-width:1.10000002;stroke-linecap:round" />
      </g>
      <circle
         cx="70.431"
         cy="2.789"
         r="2.1300001"
         transform="matrix(12.584949,0,0,12.584949,-781.19627,145.90057)"
         id="circle3170"
         style="fill:#84ffff;fill-opacity:1;stroke:#000000;stroke-width:1.10000002" />
      <circle
         cx="70.431"
         cy="2.789"
         r="2.1300001"
         transform="matrix(12.584949,0,0,12.584949,-676.4167,145.90057)"
         id="circle3172"
         style="fill:#84ffff;fill-opacity:1;stroke:#000000;stroke-width:1.10000002" />
      <rect
         width="56.614769"
         height="16.899933"
         x="129.33502"
         y="162.28896"
         id="rect3174"
         style="fill:#000000;fill-opacity:1;stroke:none" />
    </g>
  </g>
</svg>
